<?xml version="1.0" encoding="UTF-8"?>
<svg xmlns="http://www.w3.org/2000/svg" xmlns:xlink="http://www.w3.org/1999/xlink" width="500" height="500" viewBox="0 0 1190.25 2193.749945" version="1.2">
<defs>
<clipPath id="clip1">
  <path d="M 218.230469 673 L 971.574219 673 L 971.574219 1115.207031 L 218.230469 1115.207031 Z M 218.230469 673 "/>
</clipPath>
<clipPath id="clip2">
  <path d="M 529 569.320312 L 660 569.320312 L 660 648 L 529 648 Z M 529 569.320312 "/>
</clipPath>
</defs>
<g id="surface1">
<g clip-path="url(#clip1)" clip-rule="nonzero">
<path style=" stroke:none;fill-rule:nonzero;fill:rgb(66.668701%,89.019775%,92.549133%);fill-opacity:1;" d="M 955.148438 1115.5 L 234.65625 1115.5 C 225.730469 1115.5 218.429688 1108.183594 218.429688 1099.242188 L 218.429688 689.609375 C 218.429688 680.667969 225.730469 673.355469 234.65625 673.355469 L 955.148438 673.355469 C 964.070312 673.355469 971.375 680.667969 971.375 689.609375 L 971.375 1099.242188 C 971.375 1108.183594 964.070312 1115.5 955.148438 1115.5 Z M 955.148438 1115.5 "/>
</g>
<path style=" stroke:none;fill-rule:nonzero;fill:rgb(98.429871%,83.918762%,59.999084%);fill-opacity:1;" d="M 270.355469 777.390625 L 555.957031 777.390625 L 555.957031 1063.480469 L 270.355469 1063.480469 Z M 270.355469 777.390625 "/>
<path style=" stroke:none;fill-rule:nonzero;fill:rgb(88.62915%,58.81958%,65.879822%);fill-opacity:1;" d="M 465.082031 881.421875 C 465.082031 883.125 465 884.824219 464.832031 886.519531 C 464.667969 888.214844 464.417969 889.898438 464.085938 891.570312 C 463.753906 893.242188 463.339844 894.890625 462.847656 896.523438 C 462.355469 898.152344 461.78125 899.753906 461.128906 901.328125 C 460.480469 902.902344 459.753906 904.441406 458.953125 905.941406 C 458.148438 907.445312 457.277344 908.90625 456.332031 910.320312 C 455.386719 911.738281 454.375 913.105469 453.296875 914.421875 C 452.21875 915.738281 451.078125 917 449.875 918.203125 C 448.671875 919.410156 447.414062 920.550781 446.097656 921.632812 C 444.785156 922.714844 443.417969 923.726562 442.003906 924.671875 C 440.589844 925.621094 439.132812 926.496094 437.632812 927.296875 C 436.136719 928.101562 434.597656 928.828125 433.027344 929.480469 C 431.457031 930.132812 429.859375 930.707031 428.230469 931.199219 C 426.601562 931.695312 424.953125 932.109375 423.285156 932.441406 C 421.617188 932.773438 419.9375 933.023438 418.246094 933.1875 C 416.554688 933.355469 414.855469 933.441406 413.15625 933.441406 C 411.457031 933.441406 409.757812 933.355469 408.066406 933.1875 C 406.375 933.023438 404.695312 932.773438 403.027344 932.441406 C 401.359375 932.109375 399.710938 931.695312 398.082031 931.199219 C 396.457031 930.707031 394.855469 930.132812 393.285156 929.480469 C 391.714844 928.828125 390.179688 928.101562 388.679688 927.296875 C 387.179688 926.496094 385.722656 925.621094 384.308594 924.671875 C 382.894531 923.726562 381.527344 922.714844 380.214844 921.632812 C 378.898438 920.550781 377.640625 919.410156 376.4375 918.203125 C 375.234375 917 374.09375 915.738281 373.015625 914.421875 C 371.9375 913.105469 370.925781 911.738281 369.980469 910.320312 C 369.035156 908.90625 368.164062 907.445312 367.359375 905.941406 C 366.558594 904.441406 365.832031 902.902344 365.183594 901.328125 C 364.53125 899.753906 363.957031 898.152344 363.464844 896.523438 C 362.972656 894.890625 362.558594 893.242188 362.226562 891.570312 C 361.894531 889.898438 361.644531 888.214844 361.480469 886.519531 C 361.3125 884.824219 361.230469 883.125 361.230469 881.421875 C 361.230469 879.71875 361.3125 878.019531 361.480469 876.324219 C 361.644531 874.628906 361.894531 872.945312 362.226562 871.273438 C 362.558594 869.605469 362.972656 867.953125 363.464844 866.324219 C 363.957031 864.691406 364.53125 863.089844 365.183594 861.515625 C 365.832031 859.941406 366.558594 858.40625 367.359375 856.902344 C 368.164062 855.398438 369.035156 853.941406 369.980469 852.523438 C 370.925781 851.105469 371.9375 849.742188 373.015625 848.421875 C 374.09375 847.105469 375.234375 845.84375 376.4375 844.640625 C 377.640625 843.4375 378.898438 842.292969 380.214844 841.214844 C 381.527344 840.132812 382.894531 839.117188 384.308594 838.171875 C 385.722656 837.226562 387.179688 836.351562 388.679688 835.546875 C 390.179688 834.746094 391.714844 834.015625 393.285156 833.363281 C 394.855469 832.714844 396.457031 832.140625 398.082031 831.644531 C 399.710938 831.152344 401.359375 830.738281 403.027344 830.40625 C 404.695312 830.074219 406.375 829.824219 408.066406 829.65625 C 409.757812 829.488281 411.457031 829.40625 413.15625 829.40625 C 414.855469 829.40625 416.554688 829.488281 418.246094 829.65625 C 419.9375 829.824219 421.617188 830.074219 423.285156 830.40625 C 424.953125 830.738281 426.601562 831.152344 428.230469 831.644531 C 429.859375 832.140625 431.457031 832.714844 433.027344 833.363281 C 434.597656 834.015625 436.136719 834.746094 437.632812 835.546875 C 439.132812 836.351562 440.589844 837.226562 442.003906 838.171875 C 443.417969 839.117188 444.785156 840.132812 446.097656 841.214844 C 447.414062 842.292969 448.671875 843.4375 449.875 844.640625 C 451.078125 845.84375 452.21875 847.105469 453.296875 848.421875 C 454.375 849.742188 455.386719 851.105469 456.332031 852.523438 C 457.277344 853.941406 458.148438 855.398438 458.953125 856.902344 C 459.753906 858.40625 460.480469 859.941406 461.128906 861.515625 C 461.78125 863.089844 462.355469 864.691406 462.847656 866.324219 C 463.339844 867.953125 463.753906 869.605469 464.085938 871.273438 C 464.417969 872.945312 464.667969 874.628906 464.832031 876.324219 C 465 878.019531 465.082031 879.71875 465.082031 881.421875 Z M 465.082031 881.421875 "/>
<path style=" stroke:none;fill-rule:nonzero;fill:rgb(95.289612%,63.139343%,70.979309%);fill-opacity:1;" d="M 504.027344 1063.480469 L 322.285156 1063.480469 L 322.285156 1009.675781 C 322.285156 967.574219 356.359375 933.441406 398.390625 933.441406 L 427.761719 933.441406 C 469.789062 933.441406 503.867188 967.574219 503.867188 1009.675781 L 503.867188 1063.480469 Z M 504.027344 1063.480469 "/>
<path style=" stroke:none;fill-rule:nonzero;fill:rgb(48.239136%,56.079102%,59.999084%);fill-opacity:1;" d="M 919.445312 790.394531 L 789.628906 790.394531 C 782.488281 790.394531 776.648438 784.539062 776.648438 777.390625 C 776.648438 770.238281 782.488281 764.382812 789.628906 764.382812 L 919.445312 764.382812 C 926.585938 764.382812 932.429688 770.238281 932.429688 777.390625 C 932.429688 784.539062 926.585938 790.394531 919.445312 790.394531 Z M 919.445312 790.394531 "/>
<path style=" stroke:none;fill-rule:nonzero;fill:rgb(48.239136%,56.079102%,59.999084%);fill-opacity:1;" d="M 919.445312 842.410156 L 607.882812 842.410156 C 600.742188 842.410156 594.902344 836.558594 594.902344 829.40625 C 594.902344 822.253906 600.742188 816.402344 607.882812 816.402344 L 919.445312 816.402344 C 926.585938 816.402344 932.429688 822.253906 932.429688 829.40625 C 932.429688 836.558594 926.585938 842.410156 919.445312 842.410156 Z M 919.445312 842.410156 "/>
<path style=" stroke:none;fill-rule:nonzero;fill:rgb(48.239136%,56.079102%,59.999084%);fill-opacity:1;" d="M 919.445312 894.425781 L 607.882812 894.425781 C 600.742188 894.425781 594.902344 888.574219 594.902344 881.421875 C 594.902344 874.269531 600.742188 868.417969 607.882812 868.417969 L 919.445312 868.417969 C 926.585938 868.417969 932.429688 874.269531 932.429688 881.421875 C 932.429688 888.574219 926.585938 894.425781 919.445312 894.425781 Z M 919.445312 894.425781 "/>
<path style=" stroke:none;fill-rule:nonzero;fill:rgb(48.239136%,56.079102%,59.999084%);fill-opacity:1;" d="M 919.445312 946.445312 L 789.628906 946.445312 C 782.488281 946.445312 776.648438 940.59375 776.648438 933.441406 C 776.648438 926.289062 782.488281 920.433594 789.628906 920.433594 L 919.445312 920.433594 C 926.585938 920.433594 932.429688 926.289062 932.429688 933.441406 C 932.429688 940.59375 926.585938 946.445312 919.445312 946.445312 Z M 919.445312 946.445312 "/>
<path style=" stroke:none;fill-rule:nonzero;fill:rgb(48.239136%,56.079102%,59.999084%);fill-opacity:1;" d="M 737.703125 946.445312 L 607.882812 946.445312 C 600.742188 946.445312 594.902344 940.59375 594.902344 933.441406 C 594.902344 926.289062 600.742188 920.433594 607.882812 920.433594 L 737.703125 920.433594 C 744.839844 920.433594 750.683594 926.289062 750.683594 933.441406 C 750.683594 940.59375 744.839844 946.445312 737.703125 946.445312 Z M 737.703125 946.445312 "/>
<path style=" stroke:none;fill-rule:nonzero;fill:rgb(48.239136%,56.079102%,59.999084%);fill-opacity:1;" d="M 919.445312 998.460938 L 620.867188 998.460938 C 613.726562 998.460938 607.882812 992.609375 607.882812 985.457031 C 607.882812 978.304688 613.726562 972.453125 620.867188 972.453125 L 919.445312 972.453125 C 926.585938 972.453125 932.429688 978.304688 932.429688 985.457031 C 932.429688 992.609375 926.585938 998.460938 919.445312 998.460938 Z M 919.445312 998.460938 "/>
<path style=" stroke:none;fill-rule:nonzero;fill:rgb(48.239136%,56.079102%,59.999084%);fill-opacity:1;" d="M 919.445312 1050.476562 L 620.867188 1050.476562 C 613.726562 1050.476562 607.882812 1044.625 607.882812 1037.472656 C 607.882812 1030.320312 613.726562 1024.46875 620.867188 1024.46875 L 919.445312 1024.46875 C 926.585938 1024.46875 932.429688 1030.320312 932.429688 1037.472656 C 932.429688 1044.625 926.585938 1050.476562 919.445312 1050.476562 Z M 919.445312 1050.476562 "/>
<path style=" stroke:none;fill-rule:nonzero;fill:rgb(63.139343%,73.728943%,78.819275%);fill-opacity:1;" d="M 504.027344 647.347656 L 685.773438 647.347656 L 685.773438 725.371094 L 504.027344 725.371094 Z M 504.027344 647.347656 "/>
<g clip-path="url(#clip2)" clip-rule="nonzero">
<path style=" stroke:none;fill-rule:nonzero;fill:rgb(90.19928%,68.629456%,53.729248%);fill-opacity:1;" d="M 659.8125 647.347656 L 529.992188 647.347656 L 529.992188 593.703125 C 529.992188 580.210938 540.863281 569.320312 554.332031 569.320312 L 635.46875 569.320312 C 648.9375 569.320312 659.8125 580.210938 659.8125 593.703125 Z M 659.8125 647.347656 "/>
</g>
</g>
</svg>
